<svg width="24" height="24" viewBox="0 0 24 24" fill="none" xmlns="http://www.w3.org/2000/svg">
<g clip-path="url(#clip0_103_108)">
<path d="M21.962 12.875C21.7691 15.1548 20.8026 17.3002 19.2229 18.9552C17.6431 20.6102 15.5449 21.6754 13.2765 21.9739C11.0081 22.2725 8.70582 21.7866 6.75158 20.5967C4.79734 19.4069 3.30863 17.5846 2.53244 15.4324C1.75626 13.2801 1.73924 10.9271 2.48423 8.76383C3.22921 6.60055 4.69141 4.75699 6.62824 3.53901C8.56507 2.32103 10.8601 1.80184 13.1326 2.06758C15.4051 2.33332 17.5184 3.36801 19.122 5H16C15.7347 5 15.4804 5.10536 15.2928 5.29289C15.1053 5.48043 15 5.73478 15 6C15 6.26522 15.1053 6.51957 15.2928 6.70711C15.4804 6.89464 15.7347 7 16 7H20.143C20.6354 6.99974 21.1076 6.804 21.4558 6.45581C21.804 6.10761 21.9997 5.63543 22 5.143V1C22 0.734784 21.8946 0.48043 21.7071 0.292893C21.5195 0.105357 21.2652 0 21 0C20.7347 0 20.4804 0.105357 20.2928 0.292893C20.1053 0.48043 20 0.734784 20 1V3.078C17.9886 1.28073 15.4298 0.214484 12.7374 0.0517113C10.045 -0.111061 7.3764 0.639157 5.1632 2.18103C2.95001 3.72291 1.32164 5.96628 0.54146 8.54832C-0.238719 11.1304 -0.125091 13.9001 0.863968 16.4095C1.85303 18.919 3.65968 21.0214 5.99174 22.3768C8.32379 23.7322 11.0449 24.2614 13.7149 23.8786C16.385 23.4958 18.8478 22.2236 20.7052 20.2676C22.5625 18.3116 23.7057 15.7863 23.95 13.1C23.9629 12.9607 23.9466 12.8203 23.9023 12.6877C23.8579 12.555 23.7864 12.4331 23.6924 12.3296C23.5983 12.2261 23.4837 12.1434 23.3559 12.0866C23.2281 12.0299 23.0898 12.0004 22.95 12C22.706 11.9971 22.4697 12.085 22.287 12.2468C22.1044 12.4085 21.9885 12.6325 21.962 12.875Z" fill="currentColor"/>
</g>
<defs>
<clipPath id="clip0_103_108">
<rect width="24" height="24" fill="white"/>
</clipPath>
</defs>
</svg>
